<svg width="37" height="37" viewBox="0 0 37 37" fill="none" xmlns="http://www.w3.org/2000/svg">
<g clip-path="url(#clip0_5_232)">
<path d="M0.102043 0.408142V28.481L6.70209 27.8203V25.9743H8.06941V36.8265H13.9857V25.9743H15.3531V36.8265H21.2693V25.9743H22.6367V28.4271L28.5531 29.5378V25.9743H29.9205V36.8265H36.5204V0.408142H0.102043Z" fill="#F0F0F2"/>
<path d="M27.7457 4.37079H15.8587V5.73818H27.7457V4.37079Z" fill="#BCBCBC"/>
<path d="M13.5799 4.37079H8.87695V5.73818H13.5799V4.37079Z" fill="#BCBCBC"/>
<path d="M31.4914 10.3872H26.5233V11.7546H31.4914V10.3872Z" fill="#BCBCBC"/>
<path d="M24.2453 10.3872H5.13126V11.7546H24.2453V10.3872Z" fill="#BCBCBC"/>
<path d="M31.4915 14.1129H14.1267V15.4802H31.4915V14.1129Z" fill="#BCBCBC"/>
<path d="M11.8478 14.1129H5.13126V15.4802H11.8478V14.1129Z" fill="#BCBCBC"/>
<path d="M31.4914 17.8394H21.8752V19.2068H31.4914V17.8394Z" fill="#BCBCBC"/>
<path d="M19.5963 17.8394H5.13126V19.2068H19.5963V17.8394Z" fill="#BCBCBC"/>
</g>
<defs>
<clipPath id="clip0_5_232">
<rect width="36.4184" height="36.4184" fill="white" transform="translate(0.102043 0.408142)"/>
</clipPath>
</defs>
</svg>
