<svg width="43" height="48" viewBox="0 0 43 48" fill="none" xmlns="http://www.w3.org/2000/svg">
<path d="M12.7848 43.5776C14.7941 46.1318 17.9506 47.7778 21.5 47.7778C25.0494 47.7778 28.2059 46.1318 30.2151 43.5776C24.4297 44.3617 18.5703 44.3617 12.7848 43.5776Z" fill="white"/>
<path d="M37.6228 16.7222V18.4042C37.6228 20.4228 38.199 22.3963 39.2786 24.0757L41.924 28.1917C44.3406 31.9511 42.4959 37.061 38.2929 38.2499C27.2985 41.3598 15.7015 41.3598 4.70697 38.2499C0.504176 37.061 -1.34059 31.9511 1.07586 28.1917L3.72141 24.0757C4.801 22.3963 5.37708 20.4228 5.37708 18.4042V16.7222C5.37708 7.4868 12.5956 0 21.5 0C30.4043 0 37.6228 7.4868 37.6228 16.7222Z" fill="white"/>
</svg>
