<svg width="35" height="44" viewBox="0 0 35 44" fill="none" xmlns="http://www.w3.org/2000/svg">
<path d="M7.39441 34.5334H34.5333C34.5258 36.5398 34.4867 38.036 34.2886 39.2183C34.0527 40.626 33.6212 41.3715 32.9597 41.9024C32.298 42.4334 31.369 42.7796 29.6147 42.9689C27.8088 43.1638 25.4152 43.1668 21.9835 43.1668H12.4204C8.98859 43.1668 6.59513 43.1638 4.78925 42.9689C3.03496 42.7796 2.10595 42.4334 1.44427 41.9024C0.782587 41.3715 0.351179 40.626 0.115317 39.2183C0.0975968 39.1126 0.0811716 39.0042 0.0658906 38.8933C-0.0206154 38.2648 -0.0638682 37.9503 0.209269 37.2091C0.482406 36.4682 0.600812 36.3518 0.837668 36.1192C1.53999 35.4294 2.50328 34.9187 3.61134 34.6804C4.23793 34.5457 5.05559 34.5334 7.39441 34.5334Z" fill="#BBBBBB"/>
<path d="M1.5695 1.58275C2.22865 0.918047 3.15408 0.484675 4.90164 0.247733C6.70059 0.00382015 9.08486 0 12.5034 0H22.0299C25.4485 0 27.8328 0.00382015 29.6318 0.247733C31.3794 0.484675 32.3046 0.918047 32.9638 1.58275C33.623 2.24747 34.0527 3.18069 34.2877 4.94302C34.5295 6.75716 34.5333 9.16157 34.5333 12.609V34.5333H7.39441C5.05559 34.5333 4.23793 34.5456 3.61135 34.6803C2.50328 34.9186 1.53999 35.4293 0.837671 36.1191C0.600816 36.3517 0.482409 36.4681 0.209272 37.209C0.0525556 37.6342 0 37.9191 0 38.2032V12.609C0 9.16157 0.00379882 6.75716 0.245662 4.94302C0.480618 3.18069 0.910364 2.24747 1.5695 1.58275Z" fill="white"/>
<path d="M7.01465 10.7917C7.01465 9.89772 7.7394 9.17297 8.6334 9.17297H25.9001C26.7941 9.17297 27.5188 9.89772 27.5188 10.7917C27.5188 11.6857 26.7941 12.4105 25.9001 12.4105H8.6334C7.7394 12.4105 7.01465 11.6857 7.01465 10.7917Z" fill="#BBBBBB"/>
<path d="M8.6334 16.7271C7.7394 16.7271 7.01465 17.4518 7.01465 18.3458C7.01465 19.2398 7.7394 19.9646 8.6334 19.9646H19.4251C20.319 19.9646 21.0438 19.2398 21.0438 18.3458C21.0438 17.4518 20.319 16.7271 19.4251 16.7271H8.6334Z" fill="#BBBBBB"/>
</svg>
