<svg width="15" height="12" viewBox="0 0 15 12" fill="none" xmlns="http://www.w3.org/2000/svg">
<path fill-rule="evenodd" clip-rule="evenodd" d="M0 6C0 7.22955 0.31872 7.64363 0.956167 8.47178C2.22897 10.1253 4.36358 12 7.5 12C10.6364 12 12.771 10.1253 14.0438 8.47178C14.6812 7.64363 15 7.22955 15 6C15 4.77045 14.6812 4.3564 14.0438 3.52825C12.771 1.87467 10.6364 0 7.5 0C4.36358 0 2.22897 1.87467 0.956167 3.52825C0.31872 4.3564 0 4.77045 0 6ZM7.5 3.1875C5.9467 3.1875 4.6875 4.4467 4.6875 6C4.6875 7.55333 5.9467 8.8125 7.5 8.8125C9.05332 8.8125 10.3125 7.55333 10.3125 6C10.3125 4.4467 9.05332 3.1875 7.5 3.1875Z" fill="#1C274C"/>
</svg>
