<svg width="29" height="32" viewBox="0 0 29 32" fill="none" xmlns="http://www.w3.org/2000/svg">
<path d="M1 4.33334H21" stroke="#133E71" stroke-width="2" stroke-linecap="round"/>
<path d="M1 16H11" stroke="#133E71" stroke-width="2" stroke-linecap="round"/>
<path d="M17.6667 16H27.6668" stroke="#133E71" stroke-width="2" stroke-linecap="round"/>
<path d="M7.66669 27.6667H27.6667" stroke="#133E71" stroke-width="2" stroke-linecap="round"/>
<path d="M24.3334 7.66668C26.1744 7.66668 27.6667 6.17429 27.6667 4.33334C27.6667 2.49239 26.1744 1 24.3334 1C22.4924 1 21.0001 2.49239 21.0001 4.33334C21.0001 6.17429 22.4924 7.66668 24.3334 7.66668Z" stroke="#133E71" stroke-width="2" stroke-linecap="round"/>
<path d="M14.3333 19.3334C16.1743 19.3334 17.6667 17.841 17.6667 16C17.6667 14.1591 16.1743 12.6667 14.3333 12.6667C12.4924 12.6667 11 14.1591 11 16C11 17.841 12.4924 19.3334 14.3333 19.3334Z" stroke="#133E71" stroke-width="2" stroke-linecap="round"/>
<path d="M4.33334 31.0001C6.17429 31.0001 7.66668 29.5077 7.66668 27.6667C7.66668 25.8258 6.17429 24.3334 4.33334 24.3334C2.49239 24.3334 1 25.8258 1 27.6667C1 29.5077 2.49239 31.0001 4.33334 31.0001Z" stroke="#133E71" stroke-width="2" stroke-linecap="round"/>
</svg>
