<svg width="52" height="19" viewBox="0 0 52 19" fill="none" xmlns="http://www.w3.org/2000/svg">
<path d="M50.0382 13.5517H1.43123C0.821123 13.5517 0.32653 14.036 0.32653 14.6334V16.7967C0.32653 17.3941 0.821123 17.8784 1.43123 17.8784H50.0382C50.6483 17.8784 51.1429 17.3941 51.1429 16.7967V14.6334C51.1429 14.036 50.6483 13.5517 50.0382 13.5517Z" fill="#F5F5F5" stroke="#E0E0E0" stroke-width="0.5"/>
<path d="M48.3811 11.3883H3.08829C2.78323 11.3883 2.53594 11.6304 2.53594 11.9291V13.0108C2.53594 13.3095 2.78323 13.5517 3.08829 13.5517H48.3811C48.6861 13.5517 48.9334 13.3095 48.9334 13.0108V11.9291C48.9334 11.6304 48.6861 11.3883 48.3811 11.3883Z" fill="#FAFAFA" stroke="#E0E0E0" stroke-width="0.5"/>
<path d="M46.4479 9.22491H5.02152C4.86899 9.22491 4.74534 9.34599 4.74534 9.49534V11.1179C4.74534 11.2672 4.86899 11.3883 5.02152 11.3883H46.4479C46.6004 11.3883 46.724 11.2672 46.724 11.1179V9.49534C46.724 9.34599 46.6004 9.22491 46.4479 9.22491Z" fill="#F0F0F2" stroke="#D9D9D9" stroke-width="0.5"/>
<path d="M4.74534 10.3066H46.724" stroke="#D0D0D0" stroke-width="0.5" stroke-dasharray="2 1"/>
<path d="M15.24 0.571442H5.29769C4.99264 0.571442 4.74534 0.813586 4.74534 1.11229V10.8475C4.74534 11.1462 4.99264 11.3883 5.29769 11.3883H15.24C15.5451 11.3883 15.7924 11.1462 15.7924 10.8475V1.11229C15.7924 0.813586 15.5451 0.571442 15.24 0.571442Z" fill="#F5F5F5" stroke="#E0E0E0" stroke-width="0.8"/>
<path d="M10.2689 9.22493C12.0992 9.22493 13.583 7.77207 13.583 5.97987C13.583 4.18767 12.0992 2.7348 10.2689 2.7348C8.43852 2.7348 6.95475 4.18767 6.95475 5.97987C6.95475 7.77207 8.43852 9.22493 10.2689 9.22493Z" stroke="#D9D9D9" stroke-width="1.8"/>
<path d="M10.2689 7.06157C10.879 7.06157 11.3736 6.57728 11.3736 5.97988C11.3736 5.38248 10.879 4.89819 10.2689 4.89819C9.65875 4.89819 9.16415 5.38248 9.16415 5.97988C9.16415 6.57728 9.65875 7.06157 10.2689 7.06157Z" fill="#E6E6E6"/>
<path d="M46.1717 0.571442H40.6482C40.3431 0.571442 40.0958 0.813586 40.0958 1.11229V10.8475C40.0958 11.1462 40.3431 11.3883 40.6482 11.3883H46.1717C46.4767 11.3883 46.724 11.1462 46.724 10.8475V1.11229C46.724 0.813586 46.4767 0.571442 46.1717 0.571442Z" fill="#F0F0F0" stroke="#D9D9D9" stroke-width="0.8"/>
<path d="M43.4099 7.60243C44.3251 7.60243 45.067 6.87599 45.067 5.97989C45.067 5.08379 44.3251 4.35736 43.4099 4.35736C42.4948 4.35736 41.7529 5.08379 41.7529 5.97989C41.7529 6.87599 42.4948 7.60243 43.4099 7.60243Z" fill="#F5F5F5" stroke="#D0D0D0" stroke-width="0.8"/>
<path d="M37.3341 7.06155H27.3917C27.0867 7.06155 26.8394 7.3037 26.8394 7.6024V10.8475C26.8394 11.1462 27.0867 11.3883 27.3917 11.3883H37.3341C37.6391 11.3883 37.8864 11.1462 37.8864 10.8475V7.6024C37.8864 7.3037 37.6391 7.06155 37.3341 7.06155Z" fill="#F5F5F5" stroke="#E0E0E0" stroke-width="0.8"/>
<path d="M37.8864 4.89819H31.2582V7.06157H37.8864V4.89819Z" fill="#FAFAFA" stroke="#D9D9D9" stroke-width="0.5"/>
<path d="M38.7149 5.97986H35.9532C35.8007 5.97986 35.677 6.10093 35.677 6.25028V8.9545C35.677 9.10385 35.8007 9.22492 35.9532 9.22492H38.7149C38.8675 9.22492 38.9911 9.10385 38.9911 8.9545V6.25028C38.9911 6.10093 38.8675 5.97986 38.7149 5.97986Z" fill="#F8F4F0" stroke="#E6E0D8" stroke-width="0.5"/>
<path d="M38.9911 7.06155H37.8864V8.14324H38.9911V7.06155Z" fill="#F0F0F0"/>
<path d="M30.1535 16.7968C31.3737 16.7968 32.3629 15.8282 32.3629 14.6334C32.3629 13.4386 31.3737 12.47 30.1535 12.47C28.9333 12.47 27.9441 13.4386 27.9441 14.6334C27.9441 15.8282 28.9333 16.7968 30.1535 16.7968Z" fill="#F5F5F5" stroke="#D9D9D9" stroke-width="0.8"/>
<path d="M30.1535 15.4446C30.6111 15.4446 30.982 15.0814 30.982 14.6334C30.982 14.1853 30.6111 13.8221 30.1535 13.8221C29.6959 13.8221 29.325 14.1853 29.325 14.6334C29.325 15.0814 29.6959 15.4446 30.1535 15.4446Z" fill="#E6E6E6"/>
</svg>
