<svg width="37" height="37" viewBox="0 0 37 37" fill="none" xmlns="http://www.w3.org/2000/svg">
<path d="M1.12702 8.69556V34.6169C1.12702 35.239 1.63192 35.7439 2.25403 35.7439H9.01613V7.56854H2.25403C1.63192 7.56854 1.12702 8.07345 1.12702 8.69556Z" fill="#FAFAFA"/>
<path d="M24.7944 1.93347H11.2702C10.648 1.93347 10.1431 2.43837 10.1431 3.06049V35.744L10.1437 35.7451H15.2147V30.6724C15.2147 30.3608 15.4666 30.1089 15.7782 30.1089H20.2863C20.5979 30.1089 20.8498 30.3608 20.8498 30.6724V35.7451H25.9208L25.9214 35.744V3.06049C25.9214 2.43837 25.4165 1.93347 24.7944 1.93347Z" fill="white"/>
<path d="M33.8105 13.2036H27.0484V35.744H33.8105C34.4326 35.744 34.9375 35.2391 34.9375 34.617V14.3307C34.9375 13.7085 34.4326 13.2036 33.8105 13.2036Z" fill="#F5F5F5"/>
<path d="M33.8105 12.0766H27.0484V3.06049C27.0484 1.81457 26.0403 0.806458 24.7944 0.806458H11.2702C10.0242 0.806458 9.01613 1.81457 9.01613 3.06049V6.44154H2.25403C1.00812 6.44154 0 7.44965 0 8.69557V34.6169C0 35.8629 1.00812 36.871 2.25403 36.871H33.8105C35.0564 36.871 36.0645 35.8629 36.0645 34.6169V14.3307C36.0645 13.0847 35.0564 12.0766 33.8105 12.0766ZM9.01613 35.744H2.25403C1.63192 35.744 1.12702 35.2391 1.12702 34.6169V8.69557C1.12702 8.07346 1.63192 7.56855 2.25403 7.56855H9.01613V35.744ZM19.7228 35.7451H16.3417V31.2359H19.7228V35.7451ZM25.9214 35.744L25.9208 35.7451H20.8498V30.6724C20.8498 30.3608 20.5979 30.1089 20.2863 30.1089H15.7782C15.4666 30.1089 15.2147 30.3608 15.2147 30.6724V35.7451H10.1437L10.1431 35.744V3.06049C10.1431 2.43838 10.648 1.93347 11.2702 1.93347H24.7944C25.4165 1.93347 25.9214 2.43838 25.9214 3.06049V35.744ZM34.9375 34.6169C34.9375 35.2391 34.4326 35.744 33.8105 35.744H27.0484V13.2036H33.8105C34.4326 13.2036 34.9375 13.7085 34.9375 14.3307V34.6169Z" fill="#E0E0E0"/>
<path d="M3.94456 14.3306H6.19859C6.51021 14.3306 6.7621 14.0787 6.7621 13.7671V11.5131C6.7621 11.2015 6.51021 10.9496 6.19859 10.9496H3.94456C3.63294 10.9496 3.38105 11.2015 3.38105 11.5131V13.7671C3.38105 14.0787 3.63294 14.3306 3.94456 14.3306ZM4.50807 12.0766H5.63508V13.2036H4.50807V12.0766Z" fill="#D0D0D0"/>
<path d="M3.94456 19.9657H6.19859C6.51021 19.9657 6.7621 19.7138 6.7621 19.4022V17.1482C6.7621 16.8366 6.51021 16.5847 6.19859 16.5847H3.94456C3.63294 16.5847 3.38105 16.8366 3.38105 17.1482V19.4022C3.38105 19.7138 3.63294 19.9657 3.94456 19.9657ZM4.50807 17.7117H5.63508V18.8387H4.50807V17.7117Z" fill="#D0D0D0"/>
<path d="M3.94456 25.6008H6.19859C6.51021 25.6008 6.7621 25.3489 6.7621 25.0373V22.7833C6.7621 22.4716 6.51021 22.2198 6.19859 22.2198H3.94456C3.63294 22.2198 3.38105 22.4716 3.38105 22.7833V25.0373C3.38105 25.3489 3.63294 25.6008 3.94456 25.6008ZM4.50807 23.3468H5.63508V24.4738H4.50807V23.3468Z" fill="#D0D0D0"/>
<path d="M16.3417 10.9496H14.0877C13.7761 10.9496 13.5242 11.2015 13.5242 11.5131V13.7671C13.5242 14.0787 13.7761 14.3306 14.0877 14.3306H16.3417C16.6534 14.3306 16.9052 14.0787 16.9052 13.7671V11.5131C16.9052 11.2015 16.6534 10.9496 16.3417 10.9496ZM15.7782 13.2036H14.6512V12.0766H15.7782V13.2036Z" fill="#D0D0D0"/>
<path d="M16.3417 16.5847H14.0877C13.7761 16.5847 13.5242 16.8366 13.5242 17.1482V19.4022C13.5242 19.7138 13.7761 19.9657 14.0877 19.9657H16.3417C16.6534 19.9657 16.9052 19.7138 16.9052 19.4022V17.1482C16.9052 16.8366 16.6534 16.5847 16.3417 16.5847ZM15.7782 18.8387H14.6512V17.7117H15.7782V18.8387Z" fill="#D0D0D0"/>
<path d="M16.3417 22.2198H14.0877C13.7761 22.2198 13.5242 22.4716 13.5242 22.7833V25.0373C13.5242 25.3489 13.7761 25.6008 14.0877 25.6008H16.3417C16.6534 25.6008 16.9052 25.3489 16.9052 25.0373V22.7833C16.9052 22.4716 16.6534 22.2198 16.3417 22.2198ZM15.7782 24.4738H14.6512V23.3468H15.7782V24.4738Z" fill="#D0D0D0"/>
<path d="M21.9768 10.9496H19.7228C19.4112 10.9496 19.1593 11.2015 19.1593 11.5131V13.7671C19.1593 14.0787 19.4112 14.3306 19.7228 14.3306H21.9768C22.2884 14.3306 22.5403 14.0787 22.5403 13.7671V11.5131C22.5403 11.2015 22.2884 10.9496 21.9768 10.9496ZM21.4133 13.2036H20.2863V12.0766H21.4133V13.2036Z" fill="#D0D0D0"/>
<path d="M16.3417 5.31451H14.0877C13.7761 5.31451 13.5242 5.5664 13.5242 5.87802V8.13205C13.5242 8.44367 13.7761 8.69556 14.0877 8.69556H16.3417C16.6534 8.69556 16.9052 8.44367 16.9052 8.13205V5.87802C16.9052 5.5664 16.6534 5.31451 16.3417 5.31451ZM15.7782 7.56855H14.6512V6.44153H15.7782V7.56855Z" fill="#D0D0D0"/>
<path d="M21.9768 5.31451H19.7228C19.4112 5.31451 19.1593 5.5664 19.1593 5.87802V8.13205C19.1593 8.44367 19.4112 8.69556 19.7228 8.69556H21.9768C22.2884 8.69556 22.5403 8.44367 22.5403 8.13205V5.87802C22.5403 5.5664 22.2884 5.31451 21.9768 5.31451ZM21.4133 7.56855H20.2863V6.44153H21.4133V7.56855Z" fill="#D0D0D0"/>
<path d="M21.9768 16.5847H19.7228C19.4112 16.5847 19.1593 16.8366 19.1593 17.1482V19.4022C19.1593 19.7138 19.4112 19.9657 19.7228 19.9657H21.9768C22.2884 19.9657 22.5403 19.7138 22.5403 19.4022V17.1482C22.5403 16.8366 22.2884 16.5847 21.9768 16.5847ZM21.4133 18.8387H20.2863V17.7117H21.4133V18.8387Z" fill="#D0D0D0"/>
<path d="M21.9768 22.2198H19.7228C19.4112 22.2198 19.1593 22.4716 19.1593 22.7833V25.0373C19.1593 25.3489 19.4112 25.6008 19.7228 25.6008H21.9768C22.2884 25.6008 22.5403 25.3489 22.5403 25.0373V22.7833C22.5403 22.4716 22.2884 22.2198 21.9768 22.2198ZM21.4133 24.4738H20.2863V23.3468H21.4133V24.4738Z" fill="#D0D0D0"/>
<path d="M32.12 16.5847H29.8659C29.5543 16.5847 29.3024 16.8366 29.3024 17.1482V19.4022C29.3024 19.7138 29.5543 19.9657 29.8659 19.9657H32.12C32.4316 19.9657 32.6835 19.7138 32.6835 19.4022V17.1482C32.6835 16.8366 32.4316 16.5847 32.12 16.5847ZM31.5565 18.8387H30.4294V17.7117H31.5565V18.8387Z" fill="#D0D0D0"/>
<path d="M32.12 22.2198H29.8659C29.5543 22.2198 29.3024 22.4716 29.3024 22.7833V25.0373C29.3024 25.3489 29.5543 25.6008 29.8659 25.6008H32.12C32.4316 25.6008 32.6835 25.3489 32.6835 25.0373V22.7833C32.6835 22.4716 32.4316 22.2198 32.12 22.2198ZM31.5565 24.4738H30.4294V23.3468H31.5565V24.4738Z" fill="#D0D0D0"/>
<path d="M32.12 27.8548H29.8659C29.5543 27.8548 29.3024 28.1067 29.3024 28.4183V30.6724C29.3024 30.984 29.5543 31.2359 29.8659 31.2359H32.12C32.4316 31.2359 32.6835 30.984 32.6835 30.6724V28.4183C32.6835 28.1067 32.4316 27.8548 32.12 27.8548ZM31.5565 30.1089H30.4294V28.9818H31.5565V30.1089Z" fill="#D0D0D0"/>
<path d="M3.94456 31.2359H6.19859C6.51021 31.2359 6.7621 30.984 6.7621 30.6724V28.4183C6.7621 28.1067 6.51021 27.8548 6.19859 27.8548H3.94456C3.63294 27.8548 3.38105 28.1067 3.38105 28.4183V30.6724C3.38105 30.984 3.63294 31.2359 3.94456 31.2359ZM4.50807 28.9818H5.63508V30.1089H4.50807V28.9818Z" fill="#D0D0D0"/>
<g opacity="0.1">
<path d="M1.12702 8.69556V34.6169C1.12702 35.239 1.63192 35.7439 2.25403 35.7439H9.01613V7.56854H2.25403C1.63192 7.56854 1.12702 8.07345 1.12702 8.69556Z" fill="black"/>
<path d="M33.8105 13.2036H27.0484V35.744H33.8105C34.4326 35.744 34.9375 35.2391 34.9375 34.617V14.3307C34.9375 13.7085 34.4326 13.2036 33.8105 13.2036Z" fill="black"/>
</g>
<path d="M19.7228 31.2359H16.3417V35.7451H19.7228V31.2359Z" fill="#E6E6E6"/>
<path d="M5.63564 12.0766H4.50806V13.2047H5.63564V12.0766Z" fill="#E0E0E0"/>
<path d="M5.63564 17.7117H4.50806V18.8398H5.63564V17.7117Z" fill="#E0E0E0"/>
<path d="M5.63564 23.3468H4.50806V24.4749H5.63564V23.3468Z" fill="#E0E0E0"/>
<path d="M5.63564 28.9818H4.50806V30.11H5.63564V28.9818Z" fill="#E0E0E0"/>
<path d="M15.7788 6.44153H14.6512V7.56967H15.7788V6.44153Z" fill="#E0E0E0"/>
<path d="M15.7788 12.0766H14.6512V13.2047H15.7788V12.0766Z" fill="#E0E0E0"/>
<path d="M15.7788 17.7117H14.6512V18.8398H15.7788V17.7117Z" fill="#E0E0E0"/>
<path d="M15.7788 23.3468H14.6512V24.4749H15.7788V23.3468Z" fill="#E0E0E0"/>
<path d="M21.4139 6.44153H20.2863V7.56967H21.4139V6.44153Z" fill="#E0E0E0"/>
<path d="M21.4139 12.0766H20.2863V13.2047H21.4139V12.0766Z" fill="#E0E0E0"/>
<path d="M21.4139 17.7117H20.2863V18.8398H21.4139V17.7117Z" fill="#E0E0E0"/>
<path d="M21.4139 23.3468H20.2863V24.4749H21.4139V23.3468Z" fill="#E0E0E0"/>
<path d="M31.557 17.7117H30.4294V18.8398H31.557V17.7117Z" fill="#E0E0E0"/>
<path d="M31.557 23.3468H30.4294V24.4749H31.557V23.3468Z" fill="#E0E0E0"/>
<path d="M31.557 28.9818H30.4294V30.11H31.557V28.9818Z" fill="#E0E0E0"/>
</svg>
