<svg width="12" height="12" viewBox="0 0 12 12" fill="none" xmlns="http://www.w3.org/2000/svg">
<path d="M4.5282 0.98713L5.01495 1.85933C5.45422 2.64644 5.2779 3.679 4.58602 4.37086C4.58602 4.37086 3.74691 5.21011 5.26837 6.73164C6.78937 8.25264 7.62915 7.41399 7.62915 7.41399C8.32102 6.72212 9.35355 6.54579 10.1407 6.98507L11.0128 7.47182C12.2014 8.13512 12.3418 9.80192 11.2971 10.8467C10.6693 11.4744 9.9003 11.9629 9.05017 11.9951C7.6191 12.0494 5.18872 11.6872 2.75077 9.24925C0.312849 6.81129 -0.0493409 4.38093 0.00491405 2.94982C0.0371415 2.0997 0.525601 1.33068 1.15336 0.702924C2.19807 -0.341791 3.86488 -0.20142 4.5282 0.98713Z" fill="white"/>
</svg>
