<svg width="43" height="43" viewBox="0 0 43 43" fill="none" xmlns="http://www.w3.org/2000/svg">
<path fill-rule="evenodd" clip-rule="evenodd" d="M21.5 43C33.374 43 43 33.374 43 21.5C43 9.62587 33.374 0 21.5 0C9.62587 0 0 9.62587 0 21.5C0 33.374 9.62587 43 21.5 43ZM23.1125 15.05C23.1125 14.1594 22.3905 13.4375 21.5 13.4375C20.6095 13.4375 19.8875 14.1594 19.8875 15.05V19.8875H15.05C14.1594 19.8875 13.4375 20.6095 13.4375 21.5C13.4375 22.3905 14.1594 23.1125 15.05 23.1125H19.8875V27.95C19.8875 28.8405 20.6095 29.5625 21.5 29.5625C22.3905 29.5625 23.1125 28.8405 23.1125 27.95V23.1125H27.95C28.8405 23.1125 29.5625 22.3905 29.5625 21.5C29.5625 20.6095 28.8405 19.8875 27.95 19.8875H23.1125V15.05Z" fill="#F5F5F5"/>
</svg>
