<svg width="48" height="48" viewBox="0 0 48 48" fill="none" xmlns="http://www.w3.org/2000/svg">
<path d="M39.4716 10H7.65168C6.1717 10 5 11.1716 5 12.59V14.9333V21.0999V34.5432C5 35.9616 6.1717 37.1332 7.65168 37.1332H39.41C40.8899 37.1332 42 35.9615 42 34.5432V21.0999V14.9333V12.59C42 11.1716 40.8899 10 39.4716 10ZM6.23334 16.1666H40.7667V19.8667H6.23334V16.1666ZM40.8283 34.5433C40.8283 35.2833 40.2117 35.9 39.4716 35.9H7.65168C6.85005 35.9 6.23334 35.2834 6.23334 34.5433V21.0999H40.8283V34.5433ZM6.23334 14.9333V12.59C6.23334 11.85 6.84997 11.2333 7.65168 11.2333H39.41C40.2116 11.2333 40.7667 11.8499 40.8283 12.59V14.9333H6.23334Z" fill="#B7C0D2"/>
<path d="M14.2502 32.8166C15.9907 32.8166 17.4723 31.8149 18.1585 30.3499H25.3501V32.8166C25.3501 33.1866 25.5968 33.4332 25.9668 33.4332C26.3368 33.4332 26.5834 33.1866 26.5834 32.8166V30.3499H27.8168V31.5833C27.8168 31.9533 28.0634 32.1999 28.4334 32.1999C28.8034 32.1999 29.05 31.9533 29.05 31.5833V30.3499H29.6667C30.715 30.3499 31.5166 29.5483 31.5166 28.4999C31.5166 27.4516 30.715 26.65 29.6667 26.65H18.1583C17.4723 25.185 15.9907 24.1833 14.25 24.1833C11.845 24.1833 9.93335 26.095 9.93335 28.4999C9.93335 30.9049 11.8451 32.8166 14.2502 32.8166ZM29.6668 27.8832C30.0368 27.8832 30.2834 28.1299 30.2834 28.4999C30.2834 28.8699 30.0368 29.1165 29.6668 29.1165H18.5232C18.5317 29.0558 18.5395 28.995 18.5456 28.9334C18.5663 28.7866 18.5668 28.6284 18.5668 28.4998C18.5668 28.2901 18.5514 28.0844 18.5232 27.8832H29.6668V27.8832ZM14.2502 25.4166C15.9768 25.4166 17.3335 26.7733 17.3335 28.4999C17.3335 30.2266 15.9768 31.5833 14.2502 31.5833C12.5235 31.5833 11.1668 30.2266 11.1668 28.4999C11.1668 26.7733 12.5235 25.4166 14.2502 25.4166Z" fill="#B7C0D2"/>
<path d="M34.1685 32.0149C34.2918 32.1382 34.4151 32.1999 34.6001 32.1999C34.7851 32.1999 34.9084 32.1382 35.0317 32.0149L38.115 28.9316C38.3617 28.6849 38.3617 28.3149 38.115 28.0682L35.0317 24.9849C34.7851 24.7383 34.4151 24.7383 34.1684 24.9849C33.9217 25.2315 33.9217 25.6015 34.1684 25.8483L36.8201 28.4999L34.1684 31.1516C33.9217 31.3982 33.9217 31.7682 34.1685 32.0149Z" fill="#B7C0D2"/>
</svg>
