<svg width="14" height="14" viewBox="0 0 14 14" fill="none" xmlns="http://www.w3.org/2000/svg">
<path fill-rule="evenodd" clip-rule="evenodd" d="M9.0874 12.327C9.4052 11.837 9.7237 11.207 9.9526 10.3985C10.4811 10.6015 10.8437 10.8437 11.0663 11.0348C10.4961 11.6012 9.81298 12.0412 9.0615 12.3263H9.0874V12.327ZM2.9274 11.0285C3.1626 10.8374 3.5189 10.6015 4.0474 10.3915C4.2826 11.2063 4.5885 11.8363 4.9126 12.3263C4.17223 12.0351 3.50049 11.5931 2.94 11.0285H2.9274ZM10.3726 6.3637C10.353 5.7967 10.2956 5.2304 10.2011 4.6711C10.9011 4.4163 11.41 4.1111 11.7663 3.8311C12.2631 4.59164 12.5708 5.46001 12.6637 6.3637H10.3726ZM4.0915 3.4237C3.72109 3.28723 3.37201 3.09866 3.0548 2.8637C3.59129 2.35063 4.22221 1.9465 4.9126 1.6737C4.6137 2.1189 4.3211 2.6915 4.0852 3.4237H4.0922H4.0915ZM9.0874 1.6737C9.77824 1.94562 10.4093 2.34986 10.9452 2.8637C10.6276 3.09807 10.2786 3.28659 9.9085 3.4237C9.71879 2.80342 9.44008 2.21395 9.0811 1.6737H9.0874ZM8.96 4.9826C9.023 5.4026 9.0874 5.8548 9.1 6.3637H4.9C4.9189 5.8548 4.963 5.3963 5.0274 4.9826C6.3259 5.2164 7.6552 5.2164 8.9537 4.9826H8.96ZM7 3.8815C6.363 3.8815 5.803 3.8311 5.327 3.7548C5.8352 2.1889 6.6248 1.5589 7 1.3363C7.3626 1.5589 8.1585 2.1952 8.6674 3.7548C8.11584 3.84118 7.55828 3.88354 7 3.8815ZM2.2274 3.8311C2.70324 4.19288 3.23374 4.47644 3.7989 4.6711C3.70443 5.2309 3.64714 5.79633 3.6274 6.3637H1.3104C1.4109 5.45774 1.72755 4.58918 2.2337 3.8311H2.2274ZM1.3174 7.6363H3.6274C3.6526 8.1837 3.6904 8.6863 3.7674 9.1448C3.18111 9.34618 2.63405 9.64741 2.1504 10.0352C1.69269 9.30933 1.40549 8.48914 1.3104 7.6363H1.3174ZM7 8.6548C6.237 8.6548 5.5811 8.7178 5.0085 8.82C4.95256 8.42773 4.91634 8.0329 4.9 7.637H9.1C9.0811 8.0626 9.0489 8.463 8.9985 8.82C8.33912 8.7008 7.67005 8.64338 7 8.6485V8.6548ZM7 12.6637C6.6185 12.4348 5.7785 11.7537 5.2689 10.0548C5.84107 9.96156 6.42034 9.91893 7 9.9274C7.6685 9.9274 8.2411 9.9715 8.7374 10.0548C8.2285 11.7726 7.3885 12.4348 7.0063 12.6637H7ZM11.8489 10.0289C11.3658 9.64062 10.8189 9.33933 10.2326 9.1385C10.3093 8.64102 10.3561 8.13939 10.3726 7.6363H12.6896C12.5936 8.48697 12.3057 9.3049 11.8489 10.0289ZM7 0C3.1339 0 0 3.1339 0 7C0 10.8661 3.1339 14 7 14C10.8661 14 14 10.8661 14 7C14 3.1339 10.8661 0 7 0Z" fill="#1C274C"/>
</svg>
