<svg width="14" height="14" viewBox="0 0 14 14" fill="none" xmlns="http://www.w3.org/2000/svg">
<path fill-rule="evenodd" clip-rule="evenodd" d="M13.4818 2.62175C13.6673 1.71771 12.7793 0.966445 11.9185 1.29904L1.36646 5.37597C0.405137 5.74739 0.362303 7.09166 1.29802 7.5235L3.59596 8.58412L4.68912 12.4101C4.7459 12.6089 4.90361 12.7628 5.10368 12.8146C5.30376 12.8664 5.51634 12.8086 5.66249 12.6624L7.34639 10.9785L9.70521 12.7476C10.3899 13.2611 11.3761 12.8871 11.5481 12.0487L13.4818 2.62175ZM1.78693 6.46423L12.339 2.38731L10.4052 11.8143L7.64167 9.74157C7.40944 9.56739 7.08447 9.59049 6.87919 9.79576L6.15796 10.517L6.37467 9.32519L10.6208 5.07906C10.8275 4.87242 10.8493 4.54475 10.6719 4.3125C10.4945 4.08026 10.1727 4.01511 9.91894 4.16011L4.05489 7.51096L1.78693 6.46423ZM4.76989 8.4461L5.12361 9.68417L5.25942 8.93721C5.28064 8.82049 5.33697 8.71298 5.42087 8.62909L6.7158 7.33421L4.76989 8.4461Z" fill="white"/>
</svg>
