<svg width="13" height="14" viewBox="0 0 13 14" fill="none" xmlns="http://www.w3.org/2000/svg">
<path d="M2.89664 4.04751C2.96265 3.52542 3.64117 2.81584 4.17966 2.89458L4.1788 2.89371C4.70285 2.9933 5.11769 3.89527 5.35161 4.30084C5.51736 4.59511 5.40973 4.89326 5.25513 5.01906C5.04658 5.18715 4.72046 5.41909 4.78888 5.65196C4.91053 6.06595 6.3548 7.51022 7.06515 7.92079C7.33402 8.0762 7.52899 7.66632 7.69549 7.45632C7.81646 7.29479 8.11485 7.19826 8.40844 7.3577C8.84692 7.61305 9.25998 7.90982 9.64196 8.24391C9.83272 8.40336 9.87749 8.639 9.74532 8.88805C9.5125 9.32671 8.83912 9.90517 8.35032 9.7876C7.49658 9.58234 4.04397 8.24391 2.93496 4.36633C2.87259 4.18289 2.88829 4.11355 2.89664 4.04751Z" fill="white"/>
<path fill-rule="evenodd" clip-rule="evenodd" d="M6.35479 12.7096C5.64791 12.7096 5.2568 12.6337 4.62167 12.4207L3.40526 13.0289C2.63702 13.4131 1.73313 12.8544 1.73313 11.9955V10.6876C0.489059 9.52757 0 8.19 0 6.35479C0 2.84514 2.84514 0 6.35479 0C9.86443 0 12.7096 2.84514 12.7096 6.35479C12.7096 9.86443 9.86443 12.7096 6.35479 12.7096ZM2.88854 10.1852L2.52109 9.84254C1.55454 8.94131 1.15542 7.93373 1.15542 6.35479C1.15542 3.48326 3.48326 1.15542 6.35479 1.15542C9.22635 1.15542 11.5542 3.48326 11.5542 6.35479C11.5542 9.22635 9.22635 11.5542 6.35479 11.5542C5.78535 11.5542 5.51827 11.5028 4.98906 11.3253L4.53413 11.1727L2.88854 11.9955V10.1852Z" fill="white"/>
</svg>
